<?xml version="1.0" standalone="no"?>
<!DOCTYPE svg PUBLIC "-//W3C//DTD SVG 20010904//EN"
 "http://www.w3.org/TR/2001/REC-SVG-20010904/DTD/svg10.dtd">
<svg version="1.0" xmlns="http://www.w3.org/2000/svg"
 width="192.000000pt" height="192.000000pt" viewBox="0 0 192.000000 192.000000"
 preserveAspectRatio="xMidYMid meet">
<metadata>
Created by potrace 1.11, written by Peter Selinger 2001-2013
</metadata>
<g transform="translate(0.000000,192.000000) scale(0.100000,-0.100000)"
fill="#000000" stroke="none">
<path d="M1311 1443 c-79 -39 -47 -138 45 -138 37 0 50 5 69 27 23 27 25 35
12 74 -14 39 -80 59 -126 37z"/>
<path d="M990 1413 c-36 -8 -76 -16 -89 -19 -12 -3 -64 -21 -115 -41 -50 -20
-97 -36 -103 -36 -7 0 -13 -4 -13 -9 0 -4 -5 -8 -11 -8 -18 0 -228 -95 -229
-103 0 -5 4 -5 10 -2 5 3 18 8 27 10 10 2 86 26 168 54 83 27 170 52 195 56
25 3 58 8 75 11 l29 5 -39 -33 c-55 -47 -75 -71 -113 -136 l-33 -57 51 57 c52
59 146 136 197 161 54 27 83 29 128 7 62 -30 78 -69 70 -171 -4 -43 -5 -79 -2
-79 14 0 46 140 42 185 -11 140 -83 183 -245 148z"/>
<path d="M1038 1289 c-35 -9 -130 -83 -194 -150 -63 -67 -188 -226 -234 -299
-19 -30 -37 -57 -40 -60 -16 -15 -183 -310 -175 -310 2 0 35 42 74 92 38 51
78 102 88 113 10 11 40 47 68 80 109 131 406 417 488 470 33 21 35 40 5 57
-28 15 -46 16 -80 7z"/>
<path d="M400 1190 c-9 -6 -10 -10 -3 -10 6 0 15 5 18 10 8 12 4 12 -15 0z"/>
</g>
</svg>
